<svg width="20" height="21" viewBox="0 0 20 21" fill="none" xmlns="http://www.w3.org/2000/svg">
    <path d="M7.6197 17.8184V15.2627C7.61968 14.6151 8.14631 14.0889 8.79861 14.0848H11.1938C11.849 14.0848 12.3801 14.6122 12.3801 15.2627V17.811C12.3801 18.3727 12.8366 18.8292 13.4024 18.8333H15.0364C15.7996 18.8353 16.5322 18.5357 17.0726 18.0006C17.6129 17.4655 17.9166 16.739 17.9166 15.9813V8.72153C17.9166 8.10948 17.6433 7.52892 17.1704 7.13624L11.6191 2.72855C10.6487 1.95759 9.26273 1.9825 8.32108 2.78781L2.8891 7.13624C2.39387 7.51734 2.09788 8.09963 2.08325 8.72153V15.9739C2.08325 17.5531 3.37274 18.8333 4.9634 18.8333H6.56016C6.83256 18.8353 7.09449 18.7292 7.28781 18.5387C7.48113 18.3481 7.58986 18.0889 7.58985 17.8184H7.6197Z"
          fill="white"/>
</svg>
