<svg width="194" height="65" viewBox="0 0 194 65" fill="none" xmlns="http://www.w3.org/2000/svg">
    <g id="&#208;&#155;&#208;&#190;&#208;&#179;&#208;&#190;">
        <g id="&#208;&#155;&#208;&#190;&#208;&#179;&#208;&#190;_2">
            <circle id="Ellipse 10" cx="31.3165" cy="27.2704" r="5.34212" fill="url(#paint0_radial)"/>
            <g id="Group 647">
                <g id="Ellipse 8" opacity="0.67" filter="url(#filter0_f)">
                    <path d="M42.6346 27.9885C46.2124 31.2174 54.6084 34.6413 51.3795 38.2191C48.1506 41.7968 29.6949 52.017 22.0105 48.0666C18.4328 44.8377 25.2159 34.4411 28.4448 30.8633C31.6737 27.2855 39.0568 24.7596 42.6346 27.9885Z"
                          fill="url(#paint1_linear)" fill-opacity="0.3"/>
                </g>
                <g id="Union" filter="url(#filter1_ii)">
                    <path fill-rule="evenodd" clip-rule="evenodd"
                          d="M37.098 41.9326V41.9329H30.0729C26.5763 41.9329 23.7417 39.0983 23.7417 35.6017C23.7417 32.105 26.5763 29.2704 30.0729 29.2704H30.4198C31.6471 29.2704 32.797 29.6015 33.7852 30.1792C35.0698 26.3731 38.6693 23.6328 42.9087 23.6328H43.3857C48.4391 23.6328 52.5357 27.7293 52.5357 32.7827C52.5357 37.836 48.4391 41.9326 43.3857 41.9326H37.098Z"
                          fill="white"/>
                </g>
            </g>
        </g>
        <path id="WeatherCheck"
              d="M72.5625 29.8438L70.2578 38H68.3594L65.3359 26.7266H67.4297L69.3828 35.2656H69.4453L71.7109 26.7266H73.4922L75.7578 35.2656H75.8203L77.7734 26.7266H79.8672L76.8438 38H74.9453L72.6406 29.8438H72.5625ZM83.6641 31.0547C83.1224 31.0547 82.6693 31.2422 82.3047 31.6172C81.9453 31.987 81.7448 32.4635 81.7031 33.0469H85.5703C85.5495 32.4583 85.3646 31.9792 85.0156 31.6094C84.6667 31.2396 84.2161 31.0547 83.6641 31.0547ZM85.5781 35.5234H87.3984C87.2734 36.3099 86.875 36.9479 86.2031 37.4375C85.5312 37.9219 84.7083 38.1641 83.7344 38.1641C82.4948 38.1641 81.5208 37.7839 80.8125 37.0234C80.1042 36.2578 79.75 35.2135 79.75 33.8906C79.75 32.5781 80.1016 31.526 80.8047 30.7344C81.513 29.9427 82.4635 29.5469 83.6562 29.5469C84.8281 29.5469 85.7578 29.9245 86.4453 30.6797C87.1328 31.4297 87.4766 32.4349 87.4766 33.6953V34.3281H81.6875V34.4453C81.6875 35.112 81.875 35.6484 82.25 36.0547C82.6302 36.4609 83.138 36.6641 83.7734 36.6641C84.2214 36.6641 84.6068 36.5625 84.9297 36.3594C85.2578 36.151 85.474 35.8724 85.5781 35.5234ZM91.7578 36.6641C92.3151 36.6641 92.7839 36.5 93.1641 36.1719C93.5495 35.8385 93.7422 35.4245 93.7422 34.9297V34.2969L91.8281 34.4141C91.3594 34.4453 90.9948 34.5625 90.7344 34.7656C90.4792 34.9635 90.3516 35.2266 90.3516 35.5547C90.3516 35.8932 90.4792 36.1641 90.7344 36.3672C90.9948 36.5651 91.3359 36.6641 91.7578 36.6641ZM91.1719 38.1328C90.3646 38.1328 89.7005 37.901 89.1797 37.4375C88.6641 36.974 88.4062 36.3724 88.4062 35.6328C88.4062 34.8984 88.6771 34.3177 89.2188 33.8906C89.7656 33.4635 90.5443 33.2188 91.5547 33.1562L93.7422 33.0312V32.4375C93.7422 32.0052 93.6042 31.6693 93.3281 31.4297C93.0573 31.1901 92.6797 31.0703 92.1953 31.0703C91.7422 31.0703 91.3724 31.1719 91.0859 31.375C90.7995 31.5781 90.625 31.8542 90.5625 32.2031H88.7578C88.7995 31.4167 89.1354 30.7786 89.7656 30.2891C90.401 29.7943 91.237 29.5469 92.2734 29.5469C93.2995 29.5469 94.1198 29.7969 94.7344 30.2969C95.3542 30.7969 95.6641 31.4635 95.6641 32.2969V38H93.7891V36.6797H93.75C93.5156 37.1224 93.1615 37.4766 92.6875 37.7422C92.2135 38.0026 91.7083 38.1328 91.1719 38.1328ZM97.7734 27.7812H99.7188V29.7188H101.281V31.2188H99.7188V35.5234C99.7188 35.862 99.7995 36.112 99.9609 36.2734C100.122 36.4349 100.375 36.5156 100.719 36.5156C100.948 36.5156 101.133 36.5026 101.273 36.4766V37.9609C101.039 38.013 100.703 38.0391 100.266 38.0391C99.3698 38.0391 98.7292 37.8672 98.3438 37.5234C97.9635 37.1797 97.7734 36.6042 97.7734 35.7969V31.2188H96.5859V29.7188H97.7734V27.7812ZM102.664 38V26.7266H104.586V31.1406H104.625C104.849 30.6354 105.185 30.2474 105.633 29.9766C106.081 29.7005 106.617 29.5625 107.242 29.5625C108.148 29.5625 108.857 29.8411 109.367 30.3984C109.883 30.9505 110.141 31.7057 110.141 32.6641V38H108.195V33.0625C108.195 32.474 108.049 32.0182 107.758 31.6953C107.471 31.3724 107.049 31.2109 106.492 31.2109C105.909 31.2109 105.448 31.3958 105.109 31.7656C104.776 32.1354 104.609 32.6276 104.609 33.2422V38H102.664ZM115.273 31.0547C114.732 31.0547 114.279 31.2422 113.914 31.6172C113.555 31.987 113.354 32.4635 113.312 33.0469H117.18C117.159 32.4583 116.974 31.9792 116.625 31.6094C116.276 31.2396 115.826 31.0547 115.273 31.0547ZM117.188 35.5234H119.008C118.883 36.3099 118.484 36.9479 117.812 37.4375C117.141 37.9219 116.318 38.1641 115.344 38.1641C114.104 38.1641 113.13 37.7839 112.422 37.0234C111.714 36.2578 111.359 35.2135 111.359 33.8906C111.359 32.5781 111.711 31.526 112.414 30.7344C113.122 29.9427 114.073 29.5469 115.266 29.5469C116.438 29.5469 117.367 29.9245 118.055 30.6797C118.742 31.4297 119.086 32.4349 119.086 33.6953V34.3281H113.297V34.4453C113.297 35.112 113.484 35.6484 113.859 36.0547C114.24 36.4609 114.747 36.6641 115.383 36.6641C115.831 36.6641 116.216 36.5625 116.539 36.3594C116.867 36.151 117.083 35.8724 117.188 35.5234ZM120.344 38V29.7188H122.211V31.1641H122.25C122.391 30.6589 122.633 30.2682 122.977 29.9922C123.326 29.7161 123.745 29.5781 124.234 29.5781C124.406 29.5781 124.609 29.6042 124.844 29.6562V31.4141C124.651 31.3411 124.388 31.3047 124.055 31.3047C123.503 31.3047 123.07 31.4714 122.758 31.8047C122.445 32.138 122.289 32.5964 122.289 33.1797V38H120.344ZM130.898 38.1875C129.284 38.1875 128.005 37.6667 127.062 36.625C126.125 35.5833 125.656 34.1615 125.656 32.3594C125.656 30.5677 126.128 29.151 127.07 28.1094C128.018 27.0625 129.294 26.5391 130.898 26.5391C132.211 26.5391 133.318 26.9141 134.219 27.6641C135.12 28.4089 135.633 29.3854 135.758 30.5938H133.773C133.643 29.8854 133.312 29.3177 132.781 28.8906C132.255 28.4635 131.628 28.25 130.898 28.25C129.93 28.25 129.156 28.6224 128.578 29.3672C128.005 30.1068 127.719 31.1042 127.719 32.3594C127.719 33.625 128.005 34.6276 128.578 35.3672C129.151 36.1068 129.927 36.4766 130.906 36.4766C131.651 36.4766 132.276 36.2865 132.781 35.9062C133.292 35.5208 133.625 34.9896 133.781 34.3125H135.758C135.581 35.5208 135.06 36.4688 134.195 37.1562C133.331 37.8438 132.232 38.1875 130.898 38.1875ZM137.148 38V26.7266H139.07V31.1406H139.109C139.333 30.6354 139.669 30.2474 140.117 29.9766C140.565 29.7005 141.102 29.5625 141.727 29.5625C142.633 29.5625 143.341 29.8411 143.852 30.3984C144.367 30.9505 144.625 31.7057 144.625 32.6641V38H142.68V33.0625C142.68 32.474 142.534 32.0182 142.242 31.6953C141.956 31.3724 141.534 31.2109 140.977 31.2109C140.393 31.2109 139.932 31.3958 139.594 31.7656C139.26 32.1354 139.094 32.6276 139.094 33.2422V38H137.148ZM149.758 31.0547C149.216 31.0547 148.763 31.2422 148.398 31.6172C148.039 31.987 147.839 32.4635 147.797 33.0469H151.664C151.643 32.4583 151.458 31.9792 151.109 31.6094C150.76 31.2396 150.31 31.0547 149.758 31.0547ZM151.672 35.5234H153.492C153.367 36.3099 152.969 36.9479 152.297 37.4375C151.625 37.9219 150.802 38.1641 149.828 38.1641C148.589 38.1641 147.615 37.7839 146.906 37.0234C146.198 36.2578 145.844 35.2135 145.844 33.8906C145.844 32.5781 146.195 31.526 146.898 30.7344C147.607 29.9427 148.557 29.5469 149.75 29.5469C150.922 29.5469 151.852 29.9245 152.539 30.6797C153.227 31.4297 153.57 32.4349 153.57 33.6953V34.3281H147.781V34.4453C147.781 35.112 147.969 35.6484 148.344 36.0547C148.724 36.4609 149.232 36.6641 149.867 36.6641C150.315 36.6641 150.701 36.5625 151.023 36.3594C151.352 36.151 151.568 35.8724 151.672 35.5234ZM162.125 32.6719H160.289C160.206 32.2083 160.008 31.8359 159.695 31.5547C159.383 31.2682 158.977 31.125 158.477 31.125C157.862 31.125 157.372 31.3698 157.008 31.8594C156.643 32.3438 156.461 33.0104 156.461 33.8594C156.461 34.7188 156.643 35.3906 157.008 35.875C157.372 36.3542 157.867 36.5938 158.492 36.5938C158.982 36.5938 159.383 36.4635 159.695 36.2031C160.008 35.9375 160.208 35.5677 160.297 35.0938H162.133C162.055 36.0208 161.682 36.7656 161.016 37.3281C160.354 37.8854 159.505 38.1641 158.469 38.1641C157.25 38.1641 156.281 37.7812 155.562 37.0156C154.844 36.2448 154.484 35.1927 154.484 33.8594C154.484 32.5417 154.844 31.4948 155.562 30.7188C156.281 29.9375 157.245 29.5469 158.453 29.5469C159.516 29.5469 160.375 29.8438 161.031 30.4375C161.693 31.026 162.057 31.7708 162.125 32.6719ZM165.32 33.1719L168.438 29.7188H170.68L167.367 33.2812L170.82 38H168.57L165.953 34.4609L165.297 35.125V38H163.352V26.7266H165.297V33.1719H165.32Z"
              fill="white"/>
    </g>
    <defs>
        <filter id="filter0_f" x="-16.881" y="-11.3745" width="106.862" height="98.2113" filterUnits="userSpaceOnUse"
                color-interpolation-filters="sRGB">
            <feFlood flood-opacity="0" result="BackgroundImageFix"/>
            <feBlend mode="normal" in="SourceGraphic" in2="BackgroundImageFix" result="shape"/>
            <feGaussianBlur stdDeviation="18.9384" result="effect1_foregroundBlur"/>
        </filter>
        <filter id="filter1_ii" x="8.59094" y="11.0071" width="50.6784" height="40.1846" filterUnits="userSpaceOnUse"
                color-interpolation-filters="sRGB">
            <feFlood flood-opacity="0" result="BackgroundImageFix"/>
            <feBlend mode="normal" in="SourceGraphic" in2="BackgroundImageFix" result="shape"/>
            <feColorMatrix in="SourceAlpha" type="matrix" values="0 0 0 0 0 0 0 0 0 0 0 0 0 0 0 0 0 0 127 0"
                           result="hardAlpha"/>
            <feOffset dx="6.73367" dy="-12.6256"/>
            <feGaussianBlur stdDeviation="12.6256"/>
            <feComposite in2="hardAlpha" operator="arithmetic" k2="-1" k3="1"/>
            <feColorMatrix type="matrix" values="0 0 0 0 0 0 0 0 0 0 0 0 0 0 0 0 0 0 0.2 0"/>
            <feBlend mode="normal" in2="shape" result="effect1_innerShadow"/>
            <feColorMatrix in="SourceAlpha" type="matrix" values="0 0 0 0 0 0 0 0 0 0 0 0 0 0 0 0 0 0 127 0"
                           result="hardAlpha"/>
            <feOffset dx="-15.1508" dy="9.2588"/>
            <feGaussianBlur stdDeviation="12.6256"/>
            <feComposite in2="hardAlpha" operator="arithmetic" k2="-1" k3="1"/>
            <feColorMatrix type="matrix" values="0 0 0 0 1 0 0 0 0 1 0 0 0 0 1 0 0 0 1 0"/>
            <feBlend mode="normal" in2="effect1_innerShadow" result="effect2_innerShadow"/>
        </filter>
        <radialGradient id="paint0_radial" cx="0" cy="0" r="1" gradientUnits="userSpaceOnUse"
                        gradientTransform="translate(33.442 24.3584) rotate(132.136) scale(11.1308)">
            <stop stop-color="#FFF72C"/>
            <stop offset="1" stop-color="#DF7800"/>
        </radialGradient>
        <linearGradient id="paint1_linear" x1="25.8101" y1="49.6486" x2="46.5919" y2="26.326"
                        gradientUnits="userSpaceOnUse">
            <stop stop-color="#254659"/>
            <stop offset="1" stop-color="#023553"/>
        </linearGradient>
    </defs>
</svg>
